# xmcd
#
# Track frame offsets: 
#        150
#        11372
#        21150
#        35090
#        47980
#        67440
#        79420
#        101960
#        118480
#        134860
#        144467
#        164700
#        175742
#        189502
#        202135
#        218105
#
# Disc length: 3132 seconds
#
# Revision: 0
# Processed by: cddbd v1.5.2PL0 Copyright (c) Steve Scherf et al.
# Submitted via: ExactAudioCopy v0.99pb3
#
DISCID=0a0c3a10
DTITLE=Michel d'Errico - Special Danse Vol 3
DYEAR=1900
DGENRE=Jazz
TTITLE0=Paso del Carnaval
TTITLE1=La cucaracha
TTITLE2=Santa Maria de la Mer
TTITLE3=Blue Suede Shoes
TTITLE4=Red roses for a blue lady
TTITLE5=Tico tico
TTITLE6=Le beau Danube bleu
TTITLE7=Je t'aime mon amour
TTITLE8=Morena de mi copla
TTITLE9=Itsi Bitsi petit bikini
TTITLE10=Petite fleur
TTITLE11=Le blond matelot
TTITLE12=J'entends siffler le train
TTITLE13=Volare
TTITLE14=Morning at seven
TTITLE15=Czardes
EXTD=
EXTT0=
EXTT1=
EXTT2=
EXTT3=
EXTT4=
EXTT5=
EXTT6=
EXTT7=
EXTT8=
EXTT9=
EXTT10=
EXTT11=
EXTT12=
EXTT13=
EXTT14=
EXTT15=
PLAYORDER=
